<svg width="30" height="9" viewBox="0 0 30 9" fill="none" xmlns="http://www.w3.org/2000/svg">
<path d="M16.8756 0.437012H15.2145V2.08413H14.1763V3.52536H15.2145V6.20193C15.2421 7.45739 16.2777 8.46671 17.5504 8.46671C18.0084 8.46671 18.4357 8.40088 18.7962 8.25871L18.4284 6.8196C18.2771 6.87107 17.9395 6.92254 17.6542 6.92254C17.2242 6.92254 16.8756 6.57687 16.8756 6.15045V3.52536H18.8481V2.08413H16.8756V0.437012Z" fill="#973280"/>
<path fill-rule="evenodd" clip-rule="evenodd" d="M3.79448 8.46671C4.38069 8.46671 4.93029 8.31131 5.40367 8.03978V8.26082H7.06476V2.1356H5.40367V2.51107C4.93029 2.23954 4.38069 2.08413 3.79448 2.08413C2.01702 2.08413 0.576111 3.51292 0.576111 5.27542C0.576111 7.03792 2.01702 8.46671 3.79448 8.46671ZM4.00212 6.92254C4.59125 6.92254 5.10875 6.61842 5.40367 6.15988V4.39097C5.10875 3.93242 4.59125 3.6283 4.00212 3.6283C3.08472 3.6283 2.34102 4.36574 2.34102 5.27542C2.34102 6.1851 3.08472 6.92254 4.00212 6.92254Z" fill="#973280"/>
<path d="M19.9902 2.08413H21.6512V8.46671H19.9902V2.08413Z" fill="#973280"/>
<path d="M29.1262 2.08413H27.4651L25.7002 5.94456L24.0391 2.08413H22.378L25.233 8.46671H26.3231L29.1262 2.08413Z" fill="#973280"/>
<path d="M11.0618 2.08413C9.28431 2.08413 7.8434 3.51292 7.8434 5.27542C7.8434 7.03792 9.28431 8.46671 11.0618 8.46671C12.2315 8.46671 13.2554 7.84796 13.8189 6.92254L12.5559 5.99604C12.2863 6.54457 11.7185 6.92254 11.0618 6.92254C10.1444 6.92254 9.40067 6.1851 9.40067 5.27542C9.40067 4.36574 10.1444 3.6283 11.0618 3.6283C11.6549 3.6283 12.1755 3.93659 12.4693 4.40039L13.5849 3.29416C12.9954 2.55697 12.0843 2.08413 11.0618 2.08413Z" fill="#973280"/>
</svg>
