<svg width="33" height="7" viewBox="0 0 33 7" fill="none" xmlns="http://www.w3.org/2000/svg">
<path d="M8.22531 0.73413H9.19665L9.64994 1.1665V4.99605H12.8877L13.4058 5.49019V6.16962H8.6786L8.22531 5.79902V0.73413Z" fill="#D03E89"/>
<path d="M26.9397 0.73413H27.911L28.3643 1.1665V4.99605H31.6021L32.1202 5.49019V6.16962H27.393L26.9397 5.79902V0.73413Z" fill="#D03E89"/>
<path d="M0.0660984 5.61372L5.11704 0.672363H6.86544V5.73725L6.41215 6.23139H5.37606V5.24312H2.91535V4.99605L3.95144 4.00778H5.44082V2.03124L1.2317 6.10785L1.10219 6.23139H0.584144L0.00134277 5.67549L0.0660984 5.61372Z" fill="#D03E89"/>
<path d="M19.169 0.73413V1.47533L18.7157 1.9077H16.4493V5.79902L15.996 6.23139H15.4779L14.9599 5.79902V1.9077H12.6935L12.2402 1.47533V0.73413H19.169Z" fill="#D03E89"/>
<path d="M20.2699 5.79902V1.10473L20.7232 0.73413H25.5798V1.5371L25.1913 1.9077H21.6945V2.77244H23.3781L23.7667 3.20481V4.00778H21.6945V4.99605H25.1913L25.6446 5.55195V6.23139H20.7232L20.2699 5.79902Z" fill="#D03E89"/>
</svg>
